<svg width="90" height="90" viewBox="0 0 90 90" fill="none" xmlns="http://www.w3.org/2000/svg">
<path d="M67.916 33.708C74.326 33.708 79.541 28.493 79.541 22.083C79.541 15.673 74.326 10.458 67.916 10.458C61.506 10.458 56.291 15.673 56.291 22.083C56.291 28.493 61.506 33.708 67.916 33.708Z" fill="white"/>
<path d="M44 46H0.165985V89.833H44V46ZM22.083 81.541C14.57 81.541 8.45798 75.429 8.45798 67.916C8.45798 60.403 14.57 54.291 22.083 54.291C29.596 54.291 35.708 60.403 35.708 67.916C35.708 75.429 29.596 81.541 22.083 81.541Z" fill="white"/>
<path d="M22.083 56.291C15.673 56.291 10.458 61.506 10.458 67.916C10.458 74.326 15.673 79.541 22.083 79.541C28.493 79.541 33.708 74.326 33.708 67.916C33.708 61.506 28.493 56.291 22.083 56.291Z" fill="white"/>
<path d="M46 44H89.833V0.166992H46V44ZM67.916 8.45799C75.429 8.45799 81.541 14.57 81.541 22.083C81.541 29.596 75.429 35.708 67.916 35.708C60.403 35.708 54.291 29.596 54.291 22.083C54.291 14.57 60.403 8.45799 67.916 8.45799Z" fill="white"/>
<path d="M0.165985 44H44V0.166992H0.165985V44ZM12.449 13.863L13.863 12.449L22.083 20.669L30.303 12.449L31.717 13.863L23.497 22.083L31.717 30.303L30.303 31.717L22.083 23.497L13.863 31.717L12.449 30.303L20.669 22.083L12.449 13.863Z" fill="white"/>
<path d="M89.834 46H46V89.833H89.834V46ZM77.551 76.137L76.137 77.551L67.917 69.331L59.697 77.551L58.283 76.137L66.503 67.916L58.283 59.696L59.697 58.282L67.917 66.502L76.137 58.282L77.551 59.696L69.331 67.916L77.551 76.137Z" fill="white"/>
</svg>
