<svg width="65" height="65" viewBox="0 0 65 65" fill="none" xmlns="http://www.w3.org/2000/svg">
<path d="M37.4454 27.6421C37.0978 27.2936 36.529 27.2936 36.1735 27.6421L32.5 31.3249L28.8186 27.6341C28.471 27.2857 27.9022 27.2857 27.5467 27.6341C27.1991 27.9826 27.1991 28.5529 27.5467 28.9093L31.2281 32.6L27.5467 36.2907C27.1991 36.6392 27.1991 37.2094 27.5467 37.5658C27.7205 37.7401 27.9496 37.8272 28.1787 37.8272C28.4078 37.8272 28.6369 37.7401 28.8107 37.5658L32.5 33.8751L36.1814 37.5658C36.3552 37.7401 36.5843 37.8272 36.8134 37.8272C37.0425 37.8272 37.2716 37.7401 37.4454 37.5658C37.793 37.2173 37.793 36.6471 37.4454 36.2907L33.7719 32.6L37.4533 28.9093C37.8009 28.5608 37.8009 27.9905 37.4454 27.6421Z" fill="white"/>
<path d="M1.80062 64.28H22.2695H42.7384H63.2073C63.705 64.28 64.1079 63.8761 64.1079 63.3771V42.8643V22.3436V1.82286C64.1079 1.3239 63.705 0.919983 63.2073 0.919983H42.7384H22.2695H1.80062C1.30292 0.919983 0.900024 1.3239 0.900024 1.82286V22.3436V42.8643V63.385C0.900024 63.8761 1.30292 64.28 1.80062 64.28ZM43.6311 2.71782H62.3067V21.4407H43.6311V2.71782ZM43.6311 23.2385H62.3067V41.9614H43.6311V23.2385ZM43.6311 43.7593H62.3067V62.4821H43.6311V43.7593ZM23.1622 2.71782H41.8378V21.4407H23.1622V2.71782ZM23.1622 23.2385H41.8378V41.9614H23.1622V23.2385ZM23.1622 43.7593H41.8378V62.4821H23.1622V43.7593ZM2.69332 2.71782H21.3689V21.4407H2.69332V2.71782ZM2.69332 23.2385H21.3689V41.9614H2.69332V23.2385ZM2.69332 43.7593H21.3689V62.4821H2.69332V43.7593Z" fill="white"/>
<path d="M57.9143 7.12135C57.5667 6.77287 56.9979 6.77287 56.6424 7.12135L52.961 10.8121L49.2796 7.12135C48.932 6.77287 48.3632 6.77287 48.0077 7.12135C47.6601 7.46983 47.6601 8.04007 48.0077 8.39647L51.6891 12.0872L48.0077 15.7779C47.6601 16.1264 47.6601 16.6966 48.0077 17.053C48.1815 17.2273 48.4106 17.3144 48.6397 17.3144C48.8688 17.3144 49.0979 17.2273 49.2717 17.053L52.9531 13.3623L56.6345 17.053C56.8083 17.2273 57.0374 17.3144 57.2665 17.3144C57.4956 17.3144 57.7247 17.2273 57.8985 17.053C58.2461 16.7045 58.2461 16.1343 57.8985 15.7779L54.2171 12.0872L57.8985 8.39647C58.2698 8.04007 58.2698 7.46983 57.9143 7.12135Z" fill="white"/>
<path d="M16.9765 48.1628C16.6289 47.8143 16.0601 47.8143 15.7046 48.1628L12.0232 51.8535L8.34178 48.1628C7.99418 47.8143 7.42538 47.8143 7.06988 48.1628C6.71438 48.5113 6.72228 49.0815 7.06988 49.4379L10.7513 53.1286L7.06988 56.8193C6.72228 57.1678 6.72228 57.7381 7.06988 58.0945C7.24368 58.2687 7.47279 58.3558 7.70189 58.3558C7.93099 58.3558 8.16008 58.2687 8.33388 58.0945L12.0153 54.4037L15.6967 58.0945C15.8705 58.2687 16.0996 58.3558 16.3287 58.3558C16.5578 58.3558 16.7869 58.2687 16.9607 58.0945C17.3083 57.746 17.3083 57.1757 16.9607 56.8193L13.2793 53.1286L16.9607 49.4379C17.332 49.0815 17.332 48.5113 16.9765 48.1628Z" fill="white"/>
<path d="M32.5 46.6501C28.9371 46.6501 26.0457 49.5567 26.0457 53.1207C26.0457 56.6926 28.945 59.5913 32.5 59.5913C36.055 59.5913 38.9543 56.6847 38.9543 53.1207C38.9543 49.5488 36.0629 46.6501 32.5 46.6501ZM32.5 57.7935C29.9325 57.7935 27.839 55.6947 27.839 53.1207C27.839 50.5467 29.9325 48.4479 32.5 48.4479C35.0675 48.4479 37.161 50.5467 37.161 53.1207C37.161 55.6947 35.0675 57.7935 32.5 57.7935Z" fill="white"/>
<path d="M12.0311 5.60863C8.46818 5.60863 5.57678 8.51527 5.57678 12.0793C5.57678 15.6433 8.47608 18.5499 12.0311 18.5499C15.5861 18.5499 18.4854 15.6433 18.4854 12.0793C18.4854 8.51527 15.594 5.60863 12.0311 5.60863ZM12.0311 16.7521C9.46358 16.7521 7.37008 14.6533 7.37008 12.0793C7.37008 9.50527 9.46358 7.40647 12.0311 7.40647C14.5986 7.40647 16.6921 9.50527 16.6921 12.0793C16.6921 14.6533 14.5986 16.7521 12.0311 16.7521Z" fill="white"/>
<path d="M52.9689 26.1293C49.406 26.1293 46.5146 29.036 46.5146 32.6C46.5146 36.164 49.4139 39.0706 52.9689 39.0706C56.5239 39.0706 59.4232 36.164 59.4232 32.6C59.4232 29.036 56.5318 26.1293 52.9689 26.1293ZM52.9689 37.2728C50.4014 37.2728 48.3079 35.174 48.3079 32.6C48.3079 30.026 50.4014 27.9272 52.9689 27.9272C55.5443 27.9272 57.6299 30.026 57.6299 32.6C57.6299 35.174 55.5364 37.2728 52.9689 37.2728Z" fill="white"/>
</svg>
